<?xml version="1.0" encoding="utf-8"?>
<svg xmlns="http://www.w3.org/2000/svg" height="256" width="256" viewBox="0 0 256 256">
  <g>
    <path id="path1" transform="rotate(343,128,128) translate(9,9.00744050741196) scale(7.4375,7.4375)  " fill="#32CD32" d="M16.660004,9.1719961C17.273987,9.1679983 17.923004,9.2189932 18.605988,9.3339987 19.315979,9.4559927 20.449005,9.9969931 21.315002,10.500991 21.322998,10.966002 21.296997,11.438994 21.273987,12.266997 19.832001,11.869994 19.108002,11.419997 17.804993,11.466994 12.386993,11.675994 11.306,20.680998 18.071991,19.729994 18.595978,19.011992 18.230988,17.399992 18.343994,16.268003L22.337982,16.268003 22.337982,21.862989C19.307983,21.438993 17.835999,22.50099 15.677002,22.395002 6.1839905,21.942991 7.4549866,9.2420034 16.660004,9.1719961z M16.001007,2.7109985C8.6609802,2.7109983 2.7089844,8.6600027 2.7089844,15.998 2.7089844,23.339994 8.6609802,29.287992 16.001007,29.287992 23.337982,29.287992 29.290985,23.339994 29.290985,15.998 29.290985,8.6600027 23.337982,2.7109983 16.001007,2.7109985z M16.001007,0C24.837006,-5.1086317E-09 32,7.1629939 32,15.998 32,24.837004 24.837006,31.997999 16.001007,31.997999 7.1679993,31.997999 0,24.837004 0,15.998 0,7.1629939 7.1679993,-5.1086317E-09 16.001007,0z" />
  </g>
</svg>

